<?xml version="1.0" encoding="utf-8"?>
<!-- Generator: Adobe Illustrator 18.1.1, SVG Export Plug-In . SVG Version: 6.00 Build 0)  -->
<svg version="1.1" xmlns="http://www.w3.org/2000/svg" xmlns:xlink="http://www.w3.org/1999/xlink" x="0px" y="0px"
	 viewBox="0 0 288 288" enable-background="new 0 0 288 288" xml:space="preserve">
<g id="Layer_1">
	<g>
		<g id="XMLID_1_">
			<g>
				<polygon fill="#4D4D4D" points="145.5,136.5 252,136.5 252.5,136.5 252.5,143.5 252,143.5 138.5,143.5 138.5,30 138.5,29.5 
					145.5,29.5 145.5,30 				"/>
			</g>
			<g>
			</g>
		</g>
	</g>
	<g>
		<g>
			<path fill="#4D4D4D" d="M122.93,135.343c0.867,0,1.534,0.4,2.001,1.201c0.467,0.801,0.7,1.946,0.7,3.437v1.364H129v1.348h-8.566
				v-3.004C120.434,136.791,121.266,135.343,122.93,135.343z M124.775,141.344v-1.213c0-1.194-0.143-2.059-0.428-2.592
				c-0.285-0.534-0.742-0.801-1.371-0.801c-0.566,0-0.988,0.251-1.266,0.753c-0.277,0.503-0.416,1.285-0.416,2.347v1.506H124.775z"
				/>
		</g>
		<g>
			<path fill="#4D4D4D" d="M129,126.456v6.461h-8.566v-6.461h0.885v5.113h2.76v-4.804h0.879v4.804h3.152v-5.113H129z"/>
		</g>
		<g>
			<path fill="#4D4D4D" d="M125.438,122.54H129v1.348h-8.566v-3.179c0-1.421,0.201-2.472,0.604-3.151
				c0.402-0.679,1.008-1.019,1.816-1.019c1.133,0,1.898,0.777,2.297,2.331l3.85-3.147v1.594l-3.562,2.806V122.54z M124.582,122.54
				v-1.847c0-0.951-0.14-1.649-0.419-2.093c-0.279-0.444-0.698-0.666-1.257-0.666c-0.566,0-0.975,0.226-1.225,0.678
				c-0.25,0.452-0.375,1.177-0.375,2.176v1.752H124.582z"/>
		</g>
		<g>
			<path fill="#4D4D4D" d="M129,112.504v1.348h-8.566v-6.461h0.885v5.113h3.135V107.7h0.885v4.804H129z"/>
		</g>
		<g>
			<path fill="#4D4D4D" d="M124.705,95.413c1.371,0,2.449,0.469,3.234,1.407c0.785,0.938,1.178,2.242,1.178,3.912
				c0,1.707-0.386,3.024-1.157,3.952c-0.771,0.928-1.86,1.392-3.267,1.392c-1.395,0-2.476-0.465-3.243-1.396
				s-1.151-2.251-1.151-3.963c0-1.665,0.391-2.965,1.172-3.9C122.252,95.881,123.33,95.413,124.705,95.413z M124.705,104.648
				c1.16,0,2.04-0.334,2.64-1.002c0.6-0.669,0.899-1.64,0.899-2.914c0-1.284-0.299-2.254-0.896-2.909
				c-0.598-0.655-1.479-0.983-2.643-0.983c-1.152,0-2.026,0.326-2.622,0.979c-0.596,0.653-0.894,1.618-0.894,2.897
				c0,1.284,0.3,2.26,0.899,2.929C122.688,104.314,123.56,104.648,124.705,104.648z"/>
		</g>
		<g>
			<path fill="#4D4D4D" d="M125.438,91.481H129v1.348h-8.566V89.65c0-1.421,0.201-2.472,0.604-3.151
				c0.402-0.679,1.008-1.019,1.816-1.019c1.133,0,1.898,0.777,2.297,2.33l3.85-3.147v1.594l-3.562,2.806V91.481z M124.582,91.481
				v-1.847c0-0.951-0.14-1.649-0.419-2.093c-0.279-0.444-0.698-0.666-1.257-0.666c-0.566,0-0.975,0.226-1.225,0.678
				c-0.25,0.452-0.375,1.177-0.375,2.176v1.752H124.582z"/>
		</g>
		<g>
			<path fill="#4D4D4D" d="M129,77.664l-7.594,3.932v0.063c0.602-0.074,1.316-0.111,2.145-0.111H129v1.245h-8.566v-2.029l7.066-3.67
				V77.03l-7.066-3.702v-2.014H129v1.348h-5.52c-0.633,0-1.32-0.037-2.062-0.111v0.064L129,76.578V77.664z"/>
		</g>
		<g>
			<path fill="#4D4D4D" d="M129,60.85l-2.725,1.442v4.646L129,68.365v1.363l-8.602-4.582v-1.134L129,59.455V60.85z M125.379,62.713
				l-2.654,1.348c-0.336,0.174-0.748,0.354-1.236,0.539c0.375,0.116,0.787,0.283,1.236,0.499l2.654,1.363V62.713z"/>
		</g>
		<g>
			<path fill="#4D4D4D" d="M129,48.808v1.538l-7.19,6.334v0.063c0.844-0.084,1.617-0.127,2.32-0.127H129v1.245h-8.566v-1.522
				l7.16-6.318v-0.063c-0.105,0.011-0.444,0.035-1.017,0.071c-0.572,0.037-0.981,0.05-1.228,0.04h-4.916v-1.261H129z"/>
		</g>
		<g>
			<path fill="#4D4D4D" d="M121.201,40.659c0,1.274,0.313,2.279,0.94,3.017c0.627,0.737,1.485,1.106,2.575,1.106
				c1.121,0,1.987-0.355,2.599-1.066c0.611-0.71,0.917-1.724,0.917-3.04c0-0.809-0.107-1.731-0.322-2.767h0.873
				c0.223,0.803,0.334,1.794,0.334,2.973c0,1.707-0.383,3.024-1.148,3.952c-0.766,0.928-1.854,1.392-3.264,1.392
				c-0.883,0-1.656-0.224-2.32-0.67c-0.664-0.447-1.176-1.091-1.535-1.935c-0.359-0.843-0.539-1.835-0.539-2.976
				c0-1.215,0.164-2.278,0.492-3.187l0.855,0.571C121.354,38.904,121.201,39.782,121.201,40.659z"/>
		</g>
		<g>
			<path fill="#4D4D4D" d="M129,28.919v6.461h-8.566v-6.461h0.885v5.113h2.76v-4.804h0.879v4.804h3.152v-5.113H129z"/>
		</g>
	</g>
	<g>
		<g>
			<path fill="#A89C6B" d="M175.25,161.133c0,2.602-0.888,4.603-2.663,6.003c-1.775,1.4-4.315,2.101-7.62,2.101h-3.023v10.107
				h-2.988v-25.699h6.662C172.039,153.645,175.25,156.141,175.25,161.133z M161.943,166.67h2.689c2.648,0,4.564-0.428,5.748-1.283
				c1.184-0.855,1.775-2.227,1.775-4.113c0-1.699-0.557-2.965-1.67-3.797c-1.113-0.832-2.848-1.248-5.203-1.248h-3.34V166.67z"/>
		</g>
		<g>
			<path fill="#A89C6B" d="M180.629,179.344v-25.699h2.988v22.992h11.338v2.707H180.629z"/>
		</g>
		<g>
			<path fill="#A89C6B" d="M218.721,153.645v16.629c0,2.93-0.885,5.232-2.654,6.908c-1.77,1.676-4.201,2.514-7.295,2.514
				c-3.094,0-5.487-0.844-7.181-2.531c-1.693-1.688-2.54-4.008-2.54-6.961v-16.559h2.988v16.77c0,2.145,0.586,3.791,1.758,4.939
				c1.172,1.148,2.895,1.723,5.168,1.723c2.168,0,3.838-0.577,5.01-1.732s1.758-2.809,1.758-4.966v-16.734H218.721z"/>
		</g>
		<g>
			<path fill="#A89C6B" d="M240.025,172.506c0,2.262-0.82,4.025-2.461,5.291c-1.641,1.266-3.867,1.898-6.68,1.898
				c-3.047,0-5.391-0.393-7.031-1.178v-2.883c1.055,0.445,2.203,0.797,3.445,1.055c1.242,0.258,2.473,0.387,3.691,0.387
				c1.992,0,3.492-0.378,4.5-1.134c1.008-0.756,1.512-1.808,1.512-3.155c0-0.891-0.179-1.62-0.536-2.188
				c-0.357-0.568-0.955-1.093-1.793-1.573c-0.838-0.48-2.112-1.025-3.823-1.635c-2.391-0.855-4.099-1.869-5.124-3.041
				c-1.025-1.172-1.538-2.701-1.538-4.588c0-1.98,0.744-3.557,2.232-4.729c1.488-1.172,3.457-1.758,5.906-1.758
				c2.555,0,4.904,0.469,7.049,1.406l-0.932,2.602c-2.121-0.891-4.184-1.336-6.188-1.336c-1.582,0-2.818,0.34-3.709,1.02
				c-0.891,0.68-1.336,1.623-1.336,2.83c0,0.891,0.164,1.62,0.492,2.188c0.328,0.568,0.882,1.09,1.661,1.564
				c0.779,0.475,1.972,0.999,3.577,1.573c2.695,0.961,4.55,1.992,5.564,3.094C239.519,169.318,240.025,170.748,240.025,172.506z"/>
		</g>
	</g>
</g>
<g id="Layer_2">
	<g id="XMLID_2_">
		<g>
			<polygon points="132,166.5 31.5,166.5 31,166.5 31,153.5 31.5,153.5 145,153.5 145,267 145,267.5 132,267.5 132,267 			"/>
		</g>
		<g>
		</g>
	</g>
</g>
</svg>
